<svg width="45" height="44" viewBox="0 0 45 44" fill="none" xmlns="http://www.w3.org/2000/svg">
<path d="M21.7295 8.25C13.7528 8.25 7.29199 14.5588 7.29199 22.3478C7.29199 28.5861 11.4247 33.8551 17.1636 35.7231C17.8855 35.8464 18.1562 35.4235 18.1562 35.0534C18.1562 34.7186 18.1382 33.6084 18.1382 32.4277C14.5107 33.0797 13.5723 31.5642 13.2836 30.7712C13.1211 30.3659 12.4173 29.1147 11.8037 28.7799C11.2984 28.5156 10.5765 27.8636 11.7857 27.8459C12.9226 27.8283 13.7347 28.868 14.0054 29.291C15.3048 31.4232 17.3802 30.8241 18.2104 30.454C18.3367 29.5377 18.7157 28.9209 19.1307 28.5684C15.9184 28.216 12.5617 27.0001 12.5617 21.6077C12.5617 20.0745 13.1211 18.8057 14.0415 17.8189C13.8971 17.4664 13.3918 16.0214 14.1859 14.083C14.1859 14.083 15.395 13.7129 18.1562 15.528C19.3112 15.2108 20.5384 15.0522 21.7656 15.0522C22.9928 15.0522 24.22 15.2108 25.375 15.528C28.1361 13.6953 29.3453 14.083 29.3453 14.083C30.1393 16.0214 29.634 17.4664 29.4896 17.8189C30.41 18.8057 30.9695 20.0569 30.9695 21.6077C30.9695 27.0177 27.5947 28.216 24.3824 28.5684C24.9057 29.009 25.3569 29.8549 25.3569 31.1765C25.3569 33.0621 25.3389 34.5776 25.3389 35.0534C25.3389 35.4235 25.6096 35.864 26.3314 35.7231C29.1977 34.7785 31.6884 32.9799 33.4528 30.5805C35.2172 28.1811 36.1665 25.3017 36.167 22.3478C36.167 14.5588 29.7062 8.25 21.7295 8.25Z" fill="#ABB2BF"/>
</svg>
