<svg width="30" height="26" viewBox="0 0 30 26" fill="none" xmlns="http://www.w3.org/2000/svg">
<g clip-path="url(#clip0_22_301)">
<path d="M27.309 5.95825H11.1719C9.80642 5.95825 8.68924 6.93325 8.68924 8.12492V17.8749C8.68924 19.0774 9.80642 20.0416 11.1719 20.0416H27.309C28.6869 20.0416 29.7917 19.0774 29.7917 17.8749V8.12492C29.7917 6.93325 28.6869 5.95825 27.309 5.95825ZM27.309 17.8749H11.1719V9.93408L19.2405 13.5416L27.309 9.93408V17.8749ZM19.2405 11.7108L11.1719 8.12492H27.309L19.2405 11.7108ZM6.2066 17.8749C6.2066 18.0591 6.24384 18.2324 6.26866 18.4166H1.24132C0.556111 18.4166 0 17.9291 0 17.3333C0 16.7374 0.556111 16.2499 1.24132 16.2499H6.2066V17.8749ZM3.72396 7.58325H6.26866C6.24384 7.76742 6.2066 7.94075 6.2066 8.12492V9.74992H3.72396C3.04123 9.74992 2.48264 9.26242 2.48264 8.66658C2.48264 8.07075 3.04123 7.58325 3.72396 7.58325ZM1.24132 12.9999C1.24132 12.4041 1.79991 11.9166 2.48264 11.9166H6.2066V14.0833H2.48264C1.79991 14.0833 1.24132 13.5958 1.24132 12.9999Z" fill="#ABB2BF"/>
</g>
<defs>
<clipPath id="clip0_22_301">
<rect width="29.7917" height="26" fill="white"/>
</clipPath>
</defs>
</svg>
