<svg width="45" height="44" viewBox="0 0 45 44" fill="none" xmlns="http://www.w3.org/2000/svg">
<path d="M35.2503 5.5C36.2228 5.5 37.1554 5.88631 37.8431 6.57394C38.5307 7.26157 38.917 8.19421 38.917 9.16667V34.8333C38.917 35.8058 38.5307 36.7384 37.8431 37.4261C37.1554 38.1137 36.2228 38.5 35.2503 38.5H9.58366C8.6112 38.5 7.67857 38.1137 6.99093 37.4261C6.3033 36.7384 5.91699 35.8058 5.91699 34.8333V9.16667C5.91699 8.19421 6.3033 7.26157 6.99093 6.57394C7.67857 5.88631 8.6112 5.5 9.58366 5.5H35.2503ZM34.3337 33.9167V24.2C34.3337 22.6149 33.704 21.0947 32.5831 19.9739C31.4623 18.853 29.9421 18.2233 28.357 18.2233C26.7987 18.2233 24.9837 19.1767 24.1037 20.6067V18.5717H18.9887V33.9167H24.1037V24.8783C24.1037 23.4667 25.2403 22.3117 26.652 22.3117C27.3327 22.3117 27.9856 22.5821 28.4669 23.0634C28.9482 23.5448 29.2187 24.1976 29.2187 24.8783V33.9167H34.3337ZM13.0303 15.6933C13.8472 15.6933 14.6306 15.3688 15.2082 14.7912C15.7858 14.2136 16.1103 13.4302 16.1103 12.6133C16.1103 10.9083 14.7353 9.515 13.0303 9.515C12.2086 9.515 11.4205 9.84143 10.8395 10.4225C10.2584 11.0035 9.93199 11.7916 9.93199 12.6133C9.93199 14.3183 11.3253 15.6933 13.0303 15.6933ZM15.5787 33.9167V18.5717H10.5003V33.9167H15.5787Z" fill="#ABB2BF"/>
</svg>
