<svg width="79" height="78" viewBox="0 0 79 78" fill="none" xmlns="http://www.w3.org/2000/svg">
<path d="M39.4876 76.963C60.716 76.963 77.925 59.9664 77.925 39C77.925 18.0336 60.716 1.03705 39.4876 1.03705C18.2591 1.03705 1.05005 18.0336 1.05005 39C1.05005 59.9664 18.2591 76.963 39.4876 76.963Z" stroke="#020C18" stroke-width="1.22063" stroke-miterlimit="10" stroke-linecap="round" stroke-linejoin="round"/>
<path d="M39.4874 48.7426C27.582 48.7426 17.3773 55.4617 12.275 65.5403C19.0781 72.5954 28.9426 76.6269 39.4874 76.6269C50.0322 76.6269 59.8967 72.2594 66.6998 65.5403C61.5975 55.7976 51.3928 48.7426 39.4874 48.7426Z" stroke="#020C18" stroke-width="1.22063" stroke-miterlimit="10" stroke-linecap="round" stroke-linejoin="round"/>
<path d="M39.4872 40.0075C46.2502 40.0075 51.7327 34.5927 51.7327 27.9131C51.7327 21.2336 46.2502 15.8187 39.4872 15.8187C32.7241 15.8187 27.2416 21.2336 27.2416 27.9131C27.2416 34.5927 32.7241 40.0075 39.4872 40.0075Z" stroke="#020C18" stroke-width="1.22063" stroke-miterlimit="10" stroke-linecap="round" stroke-linejoin="round"/>
</svg>
